<svg width="28" height="32" viewBox="0 0 28 32" fill="none" xmlns="http://www.w3.org/2000/svg">
<path d="M13.8944 0C14.7257 0 15.3944 0.66875 15.3944 1.5V4.38125L16.8319 2.94375C17.4194 2.35625 18.3694 2.35625 18.9507 2.94375C19.5319 3.53125 19.5382 4.48125 18.9507 5.0625L15.3882 8.625V13.4062L19.5257 11.0188L20.8319 6.15625C21.0444 5.35625 21.8694 4.88125 22.6694 5.09375C23.4694 5.30625 23.9444 6.13125 23.7319 6.93125L23.2069 8.8875L25.5257 7.55C26.2444 7.1375 27.1632 7.38125 27.5757 8.1C27.9882 8.81875 27.7444 9.7375 27.0257 10.15L24.7069 11.4875L26.6757 12.0125C27.4757 12.225 27.9507 13.05 27.7382 13.85C27.5257 14.65 26.7007 15.125 25.9007 14.9125L21.0382 13.6062L16.8944 16L21.0319 18.3875L25.8944 17.0812C26.6944 16.8687 27.5194 17.3437 27.7319 18.1437C27.9444 18.9437 27.4694 19.7688 26.6694 19.9813L24.7069 20.5125L27.0257 21.85C27.7444 22.2625 27.9882 23.1812 27.5757 23.9C27.1632 24.6187 26.2444 24.8625 25.5257 24.45L23.2069 23.1125L23.7319 25.0812C23.9444 25.8812 23.4694 26.7063 22.6694 26.9188C21.8694 27.1313 21.0444 26.6563 20.8319 25.8563L19.5257 20.9937L15.3944 18.6V23.3813L18.9569 26.9438C19.5444 27.5313 19.5444 28.4812 18.9569 29.0625C18.3694 29.6438 17.4194 29.65 16.8382 29.0625L15.4007 27.625V30.5C15.4007 31.3313 14.7319 32 13.9007 32C13.0694 32 12.4007 31.3313 12.4007 30.5V27.6187L10.9632 29.0562C10.3757 29.6437 9.42569 29.6437 8.84444 29.0562C8.26319 28.4687 8.25694 27.5188 8.84444 26.9375L12.4069 23.375V18.6L8.26944 20.9875L6.96319 25.85C6.75069 26.65 5.92569 27.125 5.12569 26.9125C4.32569 26.7 3.85069 25.875 4.06319 25.075L4.58194 23.1125L2.26319 24.45C1.54444 24.8625 0.625689 24.6187 0.213189 23.9C-0.199311 23.1812 0.0444385 22.2625 0.763189 21.85L3.08194 20.5125L1.11319 19.9875C0.313189 19.775 -0.161811 18.95 0.0506886 18.15C0.263189 17.35 1.08819 16.875 1.88819 17.0875L6.75069 18.3937L10.8944 16L6.75694 13.6125L1.88819 14.9125C1.08819 15.125 0.263189 14.65 0.0506886 13.85C-0.161811 13.05 0.313189 12.225 1.11319 12.0125L3.08194 11.4875L0.763189 10.15C0.0444385 9.7375 -0.199311 8.81875 0.213189 8.1C0.625689 7.38125 1.54444 7.1375 2.26319 7.55L4.58194 8.8875L4.05694 6.91875C3.84444 6.11875 4.31944 5.29375 5.11944 5.08125C5.91944 4.86875 6.74444 5.34375 6.95694 6.14375L8.26319 11.0063L12.3944 13.4V8.61875L8.83194 5.0625C8.24444 4.475 8.24444 3.525 8.83194 2.94375C9.41944 2.3625 10.3694 2.35625 10.9507 2.94375L12.3882 4.38125V1.5C12.3882 0.66875 13.0569 0 13.8882 0H13.8944Z" fill="#00D1FF"/>
</svg>
