<svg width="32" height="32" viewBox="0 0 32 32" fill="none" xmlns="http://www.w3.org/2000/svg">
<path d="M16 0C16.8313 0 17.5 0.66875 17.5 1.5V4.38125L18.9375 2.94375C19.525 2.35625 20.475 2.35625 21.0562 2.94375C21.6375 3.53125 21.6437 4.48125 21.0562 5.0625L17.4937 8.625V13.4062L21.6312 11.0188L22.9375 6.15625C23.15 5.35625 23.975 4.88125 24.775 5.09375C25.575 5.30625 26.05 6.13125 25.8375 6.93125L25.3125 8.8875L27.6312 7.55C28.35 7.1375 29.2687 7.38125 29.6812 8.1C30.0937 8.81875 29.85 9.7375 29.1312 10.15L26.8125 11.4875L28.7812 12.0125C29.5812 12.225 30.0562 13.05 29.8437 13.85C29.6312 14.65 28.8062 15.125 28.0062 14.9125L23.1437 13.6062L19 16L23.1375 18.3875L28 17.0812C28.8 16.8687 29.625 17.3437 29.8375 18.1437C30.05 18.9437 29.575 19.7688 28.775 19.9813L26.8125 20.5125L29.1312 21.85C29.85 22.2625 30.0937 23.1812 29.6812 23.9C29.2687 24.6187 28.35 24.8625 27.6312 24.45L25.3125 23.1125L25.8375 25.0812C26.05 25.8812 25.575 26.7063 24.775 26.9188C23.975 27.1313 23.15 26.6563 22.9375 25.8563L21.6312 20.9937L17.5 18.6V23.3813L21.0625 26.9438C21.65 27.5313 21.65 28.4812 21.0625 29.0625C20.475 29.6438 19.525 29.65 18.9437 29.0625L17.5063 27.625V30.5C17.5063 31.3313 16.8375 32 16.0063 32C15.175 32 14.5063 31.3313 14.5063 30.5V27.6187L13.0688 29.0562C12.4813 29.6437 11.5313 29.6437 10.95 29.0562C10.3688 28.4687 10.3625 27.5188 10.95 26.9375L14.5125 23.375V18.6L10.375 20.9875L9.06875 25.85C8.85625 26.65 8.03125 27.125 7.23125 26.9125C6.43125 26.7 5.95625 25.875 6.16875 25.075L6.6875 23.1125L4.36875 24.45C3.65 24.8625 2.73125 24.6187 2.31875 23.9C1.90625 23.1812 2.15 22.2625 2.86875 21.85L5.1875 20.5125L3.21875 19.9875C2.41875 19.775 1.94375 18.95 2.15625 18.15C2.36875 17.35 3.19375 16.875 3.99375 17.0875L8.85625 18.3937L13 16L8.8625 13.6125L3.99375 14.9125C3.19375 15.125 2.36875 14.65 2.15625 13.85C1.94375 13.05 2.41875 12.225 3.21875 12.0125L5.1875 11.4875L2.86875 10.15C2.15 9.7375 1.90625 8.81875 2.31875 8.1C2.73125 7.38125 3.65 7.1375 4.36875 7.55L6.6875 8.8875L6.1625 6.91875C5.95 6.11875 6.425 5.29375 7.225 5.08125C8.025 4.86875 8.85 5.34375 9.0625 6.14375L10.3687 11.0063L14.5 13.4V8.61875L10.9375 5.0625C10.35 4.475 10.35 3.525 10.9375 2.94375C11.525 2.3625 12.475 2.35625 13.0562 2.94375L14.4937 4.38125V1.5C14.4937 0.66875 15.1625 0 15.9937 0H16Z" fill="#00F0FF"/>
</svg>
